<?xml version="1.0" standalone="no"?>
<!DOCTYPE svg PUBLIC "-//W3C//DTD SVG 20010904//EN"
 "http://www.w3.org/TR/2001/REC-SVG-20010904/DTD/svg10.dtd">
<svg version="1.0" xmlns="http://www.w3.org/2000/svg"
 width="200.000000pt" height="200.000000pt" viewBox="0 0 200.000000 200.000000"
 preserveAspectRatio="xMidYMid meet">
<metadata>
Created by potrace 1.11, written by Peter Selinger 2001-2013
</metadata>
<g transform="translate(0.000000,200.000000) scale(0.100000,-0.100000)"
fill="#000000" stroke="none">
<path d="M555 1625 c-90 -20 -173 -54 -179 -73 -6 -19 -5 -30 25 -237 12 -86
25 -144 33 -150 8 -7 115 -10 285 -10 307 0 295 -3 306 80 10 82 16 119 21
135 3 13 21 16 95 15 l91 0 -7 -80 c-4 -44 -8 -91 -10 -105 -1 -14 -6 -59 -10
-100 -7 -76 -8 -89 -20 -215 -3 -38 -8 -83 -10 -100 -2 -16 -7 -71 -11 -121
-6 -86 -5 -93 14 -103 25 -13 49 -5 56 17 3 10 8 46 11 82 3 36 8 81 10 100 2
19 7 64 10 100 14 160 15 175 30 320 20 191 23 266 11 277 -4 4 -60 8 -124 8
l-117 0 0 47 c-1 26 -4 50 -7 53 -8 8 -134 52 -173 60 -60 13 -270 13 -330 0z
m360 -92 c66 -21 70 -29 54 -118 -4 -22 -10 -65 -14 -95 -3 -30 -8 -62 -10
-70 -4 -13 -38 -15 -227 -15 l-223 1 -12 74 c-21 132 -25 197 -14 204 6 4 43
15 83 25 95 25 275 22 363 -6z"/>
<path d="M804 1512 c-6 -4 -38 -52 -71 -108 -50 -84 -58 -104 -50 -123 8 -16
18 -21 36 -19 20 2 37 22 83 98 61 102 69 133 39 150 -23 12 -23 12 -37 2z"/>
<path d="M134 1452 c-15 -14 -15 -73 1 -194 2 -18 7 -64 10 -103 4 -38 8 -83
9 -100 2 -16 7 -66 11 -110 4 -44 9 -93 11 -110 2 -16 6 -66 9 -110 4 -44 8
-90 10 -102 2 -12 6 -57 10 -100 3 -43 11 -91 17 -106 22 -56 27 -57 498 -57
305 0 438 3 453 11 24 13 39 33 48 64 15 52 -51 79 -73 30 l-11 -25 -418 0
c-230 0 -420 3 -422 8 -3 4 -8 43 -12 87 -4 44 -8 94 -10 110 -2 17 -6 58 -9
92 -6 64 -15 160 -21 223 -2 19 -7 69 -11 110 -3 41 -12 128 -18 193 -7 64
-10 117 -7 118 4 1 35 2 69 3 75 3 98 24 72 66 -13 21 -195 23 -216 2z"/>
<path d="M1612 1201 c-10 -6 -13 -68 -12 -285 l0 -277 -73 56 c-91 68 -127 71
-127 10 0 -18 217 -185 242 -185 10 0 25 6 33 12 7 7 56 46 109 87 83 64 97
78 94 100 -5 47 -44 39 -126 -24 l-72 -56 0 273 c0 200 -3 277 -12 286 -14 14
-37 15 -56 3z"/>
</g>
</svg>
